<svg width="8" height="9" viewBox="0 0 8 9" fill="none" xmlns="http://www.w3.org/2000/svg">
<path id="Vector" d="M6.81567 7.31733H5.631V5.461C5.631 5.01833 5.622 4.44867 5.01367 4.44867C4.396 4.44867 4.30167 4.93033 4.30167 5.42833V7.31733H3.117V3.5H4.255V4.02033H4.27033C4.42933 3.72033 4.816 3.40367 5.39367 3.40367C6.594 3.40367 6.816 4.19367 6.816 5.222V7.31733H6.81567ZM1.779 2.97767C1.39767 2.97767 1.09133 2.669 1.09133 2.28933C1.09133 1.91 1.398 1.60167 1.779 1.60167C2.159 1.60167 2.467 1.91 2.467 2.28933C2.467 2.669 2.15867 2.97767 1.779 2.97767ZM2.373 7.31733H1.185V3.5H2.373V7.31733ZM7.40833 0.5H0.590333C0.264 0.5 0 0.758 0 1.07633V7.92367C0 8.24233 0.264 8.5 0.590333 8.5H7.40733C7.73333 8.5 8 8.24233 8 7.92367V1.07633C8 0.758 7.73333 0.5 7.40733 0.5H7.40833Z" fill="#0A66C2"/>
</svg>
